<svg xmlns="http://www.w3.org/2000/svg" width="207.64mm" height="53.14mm" viewBox="0 0 588.59 150.63"><path d="M113.41,129.4V157H4.41V135L64.07,49.15H74.2L12.75,137.52v11.24h92.32V137.61H27.14l69.1-99.5H10.56V10.54H112.12v8.21H18.9V29.9H112L42.93,129.4Z" transform="translate(-4.41 -8.39)" style="fill:#231f20"/><path d="M257.66,10.54,209.61,97.05V157H180.42V113.18h8.34v35.58h12.51V94.9l42.29-76.15h-13.9L183.4,102l-51-91.49h33L188.07,51.6l-4.77,8.5L160.37,18.75h-13.9L183.4,84.93l41.3-74.39Z" transform="translate(-4.41 -8.39)" style="fill:#231f20"/><path d="M388.7,57c0,17.79-7.84,32.16-21.74,39.88l-4.87-6.55C374.6,83.07,380.36,71.63,380.36,57c0-23.56-17.77-38.22-45-38.22h-43v130h12.51V77.6h8.64l53.11,71.16h14.69L327.74,77.6h8.14c18.37,0,23.63-9.68,23.63-20.63,0-12.31-8.83-18.86-22.63-18.86H313.25V66.45h-8.34V29.9h32c18.86,0,31,10.65,31,27.07,0,15.54-8.83,26-24,28.15L397.93,157H362.39L313.25,91v66H284.06V10.54h51.33C369.64,10.54,388.7,31,388.7,57Z" transform="translate(-4.41 -8.39)" style="fill:#231f20"/><path d="M435.85,38.11V148.76h12.51V49.25h8.34V157H427.51V29.9h20.85V18.75H427.51V10.54H456.7V38.11Z" transform="translate(-4.41 -8.39)" style="fill:#231f20"/><path d="M593,115.82c0,28.54-22.73,43.2-54.2,43.2-20.95,0-36.93-5.67-51.82-13.59l10.12-26.49c13.61,7,28.2,12.52,41.7,12.52,16.08,0,25-4.7,25-15.64,0-18.87-12.81-23.95-25.42-30.7C526,78.57,513.78,71.44,513.78,52.28c0-12.61,8.74-24.53,30.78-24.53,9.73,0,19.16,2.05,29.78,6.45L578.51,23c-8.84-3.91-15.79-6.36-34-6.36-23.73,0-43.19,12-43.19,35.78,0,21.31,12,33.53,27.4,40.47l-2.88,7.72c-21.14-9.39-32.86-25.51-32.86-48.19,0-29.13,24-44,51.53-44,23.13,0,32,4.2,44.47,10.46L579,45.44C566.89,39.28,556.17,36,544.56,36c-14.79,0-22.44,6-22.44,16.32,0,15,9.63,19.94,20.45,25.71,13.8,7.33,29.59,14.56,29.59,37.83,0,8.89-4.27,23.85-33.36,23.85-11,0-23.53-3.13-37.13-9.39l-4.27,11.15a93.18,93.18,0,0,0,41.4,9.38c14.1,0,25.81-3.23,33.85-9.19s12-14.76,12-25.8c0-22.09-10.62-36.76-34.44-46.43L553,61.66C578.91,72,593,88.84,593,115.82Z" transform="translate(-4.41 -8.39)" style="fill:#231f20"/></svg>